<svg width="100" height="50" viewBox="0 0 100 50" fill="none" xmlns="http://www.w3.org/2000/svg">
<g id="addFriend">
<path id="Vector" d="M94 0H6C2.68629 0 0 2.68629 0 6V44C0 47.3137 2.68629 50 6 50H94C97.3137 50 100 47.3137 100 44V6C100 2.68629 97.3137 0 94 0Z" fill="#4682B4"/>
<path id="ADD" d="M32.1035 30.3203H21.3809L18.9727 37H15.4922L25.2656 11.4062H28.2188L38.0098 37H34.5469L32.1035 30.3203ZM22.4004 27.543H31.1016L26.7422 15.5723L22.4004 27.543ZM41.4551 37V11.4062H48.6797C50.9062 11.4062 52.875 11.8984 54.5859 12.8828C56.2969 13.8672 57.6152 15.2676 58.541 17.084C59.4785 18.9004 59.9531 20.9863 59.9648 23.3418V24.9766C59.9648 27.3906 59.4961 29.5059 58.5586 31.3223C57.6328 33.1387 56.3027 34.5332 54.5684 35.5059C52.8457 36.4785 50.8359 36.9766 48.5391 37H41.4551ZM44.8301 14.1836V34.2402H48.3809C50.9824 34.2402 53.0039 33.4316 54.4453 31.8145C55.8984 30.1973 56.625 27.8945 56.625 24.9062V23.4121C56.625 20.5059 55.9395 18.25 54.5684 16.6445C53.209 15.0273 51.2754 14.207 48.7676 14.1836H44.8301ZM65.0801 37V11.4062H72.3047C74.5312 11.4062 76.5 11.8984 78.2109 12.8828C79.9219 13.8672 81.2402 15.2676 82.166 17.084C83.1035 18.9004 83.5781 20.9863 83.5898 23.3418V24.9766C83.5898 27.3906 83.1211 29.5059 82.1836 31.3223C81.2578 33.1387 79.9277 34.5332 78.1934 35.5059C76.4707 36.4785 74.4609 36.9766 72.1641 37H65.0801ZM68.4551 14.1836V34.2402H72.0059C74.6074 34.2402 76.6289 33.4316 78.0703 31.8145C79.5234 30.1973 80.25 27.8945 80.25 24.9062V23.4121C80.25 20.5059 79.5645 18.25 78.1934 16.6445C76.834 15.0273 74.9004 14.207 72.3926 14.1836H68.4551Z" fill="white"/>
</g>
</svg>
