<svg width="100" height="50" viewBox="0 0 100 50" fill="none" xmlns="http://www.w3.org/2000/svg">
<g id="friend">
<path id="Vector" d="M93 0H7C3.13401 0 0 3.13401 0 7V43C0 46.866 3.13401 50 7 50H93C96.866 50 100 46.866 100 43V7C100 3.13401 96.866 0 93 0Z" fill="#008000"/>
<path id="FRIENDS" d="M13.3906 25.4648H6.23047V33H3.98047V15.9375H14.5508V17.7891H6.23047V23.625H13.3906V25.4648ZM23.5039 26.0977H19.4961V33H17.2344V15.9375H22.8828C24.8047 15.9375 26.2812 16.375 27.3125 17.25C28.3516 18.125 28.8711 19.3984 28.8711 21.0703C28.8711 22.1328 28.582 23.0586 28.0039 23.8477C27.4336 24.6367 26.6367 25.2266 25.6133 25.6172L29.6211 32.8594V33H27.207L23.5039 26.0977ZM19.4961 24.2578H22.9531C24.0703 24.2578 24.957 23.9688 25.6133 23.3906C26.2773 22.8125 26.6094 22.0391 26.6094 21.0703C26.6094 20.0156 26.293 19.207 25.6602 18.6445C25.0352 18.082 24.1289 17.7969 22.9414 17.7891H19.4961V24.2578ZM34.4492 33H32.1992V15.9375H34.4492V33ZM48.2188 25.1133H40.8242V31.1602H49.4141V33H38.5742V15.9375H49.2969V17.7891H40.8242V23.2734H48.2188V25.1133ZM65.3281 33H63.0664L54.4766 19.8516V33H52.2148V15.9375H54.4766L63.0898 29.1445V15.9375H65.3281V33ZM69.3242 33V15.9375H74.1406C75.625 15.9375 76.9375 16.2656 78.0781 16.9219C79.2188 17.5781 80.0977 18.5117 80.7148 19.7227C81.3398 20.9336 81.6562 22.3242 81.6641 23.8945V24.9844C81.6641 26.5938 81.3516 28.0039 80.7266 29.2148C80.1094 30.4258 79.2227 31.3555 78.0664 32.0039C76.918 32.6523 75.5781 32.9844 74.0469 33H69.3242ZM71.5742 17.7891V31.1602H73.9414C75.6758 31.1602 77.0234 30.6211 77.9844 29.543C78.9531 28.4648 79.4375 26.9297 79.4375 24.9375V23.9414C79.4375 22.0039 78.9805 20.5 78.0664 19.4297C77.1602 18.3516 75.8711 17.8047 74.1992 17.7891H71.5742ZM90.1016 25.3945C88.1719 24.8398 86.7656 24.1602 85.8828 23.3555C85.0078 22.543 84.5703 21.543 84.5703 20.3555C84.5703 19.0117 85.1055 17.9023 86.1758 17.0273C87.2539 16.1445 88.6523 15.7031 90.3711 15.7031C91.543 15.7031 92.5859 15.9297 93.5 16.3828C94.4219 16.8359 95.1328 17.4609 95.6328 18.2578C96.1406 19.0547 96.3945 19.9258 96.3945 20.8711H94.1328C94.1328 19.8398 93.8047 19.0312 93.1484 18.4453C92.4922 17.8516 91.5664 17.5547 90.3711 17.5547C89.2617 17.5547 88.3945 17.8008 87.7695 18.293C87.1523 18.7773 86.8438 19.4531 86.8438 20.3203C86.8438 21.0156 87.1367 21.6055 87.7227 22.0898C88.3164 22.5664 89.3203 23.0039 90.7344 23.4023C92.1562 23.8008 93.2656 24.2422 94.0625 24.7266C94.8672 25.2031 95.4609 25.7617 95.8438 26.4023C96.2344 27.043 96.4297 27.7969 96.4297 28.6641C96.4297 30.0469 95.8906 31.1562 94.8125 31.9922C93.7344 32.8203 92.293 33.2344 90.4883 33.2344C89.3164 33.2344 88.2227 33.0117 87.207 32.5664C86.1914 32.1133 85.4062 31.4961 84.8516 30.7148C84.3047 29.9336 84.0312 29.0469 84.0312 28.0547H86.293C86.293 29.0859 86.6719 29.9023 87.4297 30.5039C88.1953 31.0977 89.2148 31.3945 90.4883 31.3945C91.6758 31.3945 92.5859 31.1523 93.2188 30.668C93.8516 30.1836 94.168 29.5234 94.168 28.6875C94.168 27.8516 93.875 27.207 93.2891 26.7539C92.7031 26.293 91.6406 25.8398 90.1016 25.3945Z" fill="white"/>
</g>
</svg>
