<svg width="520" height="520" viewBox="0 0 520 520" fill="none" xmlns="http://www.w3.org/2000/svg">
<g id="reject" filter="url(#filter0_d)">
<path id="backgroundCircle" d="M260 490.67C389.605 490.67 494.67 385.605 494.67 256C494.67 126.395 389.605 21.33 260 21.33C130.395 21.33 25.33 126.395 25.33 256C25.33 385.605 130.395 490.67 260 490.67Z" fill="white"/>
<path id="outerCircle" d="M260 512C118.84 512 4 397.16 4 256C4 114.84 118.84 0 260 0C401.16 0 516 114.84 516 256C516 397.16 401.16 512 260 512ZM260 42.67C142.37 42.67 46.67 138.37 46.67 256C46.67 373.63 142.37 469.33 260 469.33C377.63 469.33 473.33 373.63 473.33 256C473.33 138.37 377.63 42.67 260 42.67Z" fill="#F08080"/>
<path id="minus" d="M345.33 277.33H174.67C169.012 277.33 163.585 275.082 159.584 271.081C155.583 267.08 153.335 261.653 153.335 255.995C153.335 250.337 155.583 244.91 159.584 240.909C163.585 236.908 169.012 234.66 174.67 234.66H345.33C350.988 234.66 356.415 236.908 360.416 240.909C364.417 244.91 366.665 250.337 366.665 255.995C366.665 261.653 364.417 267.08 360.416 271.081C356.415 275.082 350.988 277.33 345.33 277.33Z" fill="#F08080"/>
</g>
<defs>
<filter id="filter0_d" x="0" y="0" width="520" height="520" filterUnits="userSpaceOnUse" color-interpolation-filters="sRGB">
<feFlood flood-opacity="0" result="BackgroundImageFix"/>
<feColorMatrix in="SourceAlpha" type="matrix" values="0 0 0 0 0 0 0 0 0 0 0 0 0 0 0 0 0 0 127 0"/>
<feOffset dy="4"/>
<feGaussianBlur stdDeviation="2"/>
<feColorMatrix type="matrix" values="0 0 0 0 0 0 0 0 0 0 0 0 0 0 0 0 0 0 0.25 0"/>
<feBlend mode="normal" in2="BackgroundImageFix" result="effect1_dropShadow"/>
<feBlend mode="normal" in="SourceGraphic" in2="effect1_dropShadow" result="shape"/>
</filter>
</defs>
</svg>
