<svg width="100" height="50" viewBox="0 0 100 50" fill="none" xmlns="http://www.w3.org/2000/svg">
<path d="M94 0H6C2.68629 0 0 2.68629 0 6V44C0 47.3137 2.68629 50 6 50H94C97.3137 50 100 47.3137 100 44V6C100 2.68629 97.3137 0 94 0Z" fill="white"/>
<path d="M16.5117 25.5918C13.6172 24.7598 11.5078 23.7402 10.1836 22.5332C8.8711 21.3145 8.2148 19.8145 8.2148 18.0332C8.2148 16.0176 9.0176 14.3535 10.623 13.041C12.2402 11.7168 14.3379 11.0547 16.916 11.0547C18.6738 11.0547 20.2383 11.3945 21.6094 12.0742C22.9922 12.7539 24.0586 13.6914 24.8086 14.8867C25.5703 16.082 25.9512 17.3887 25.9512 18.8066H22.5586C22.5586 17.2598 22.0664 16.0469 21.082 15.168C20.0977 14.2773 18.709 13.832 16.916 13.832C15.252 13.832 13.9512 14.2012 13.0137 14.9395C12.0879 15.666 11.625 16.6797 11.625 17.9805C11.625 19.0234 12.0645 19.9082 12.9434 20.6348C13.834 21.3496 15.3398 22.0059 17.4609 22.6035C19.5938 23.2012 21.2578 23.8633 22.4531 24.5898C23.6602 25.3047 24.5508 26.1426 25.125 27.1035C25.7109 28.0645 26.0039 29.1953 26.0039 30.4961C26.0039 32.5703 25.1953 34.2344 23.5781 35.4883C21.9609 36.7305 19.7988 37.3516 17.0918 37.3516C15.334 37.3516 13.6934 37.0176 12.1699 36.3496C10.6465 35.6699 9.4688 34.7441 8.6367 33.5723C7.8164 32.4004 7.4062 31.0703 7.4062 29.582H10.7988C10.7988 31.1289 11.3672 32.3535 12.5039 33.2559C13.6523 34.1465 15.1816 34.5918 17.0918 34.5918C18.873 34.5918 20.2383 34.2285 21.1875 33.502C22.1367 32.7754 22.6113 31.7852 22.6113 30.5312C22.6113 29.2773 22.1719 28.3105 21.293 27.6309C20.4141 26.9395 18.8203 26.2598 16.5117 25.5918ZM44.8125 25.1699H33.7207V34.2402H46.6055V37H30.3457V11.4062H46.4297V14.1836H33.7207V22.4102H44.8125V25.1699ZM70.4766 37H67.084L54.1992 17.2773V37H50.8066V11.4062H54.1992L67.1191 31.2168V11.4062H70.4766V37ZM93.627 14.1836H85.4004V37H82.043V14.1836H73.834V11.4062H93.627V14.1836Z" fill="#808080"/>
</svg>
