<svg width="100" height="50" viewBox="0 0 100 50" fill="none" xmlns="http://www.w3.org/2000/svg">
<g id="RequestReceivedReject">
<rect id="Rectangle 1" width="100" height="50" rx="6" fill="#800000"/>
<path id="Reject" d="M25.5391 24.0977H21.5312V31H19.2695V13.9375H24.918C26.8398 13.9375 28.3164 14.375 29.3477 15.25C30.3867 16.125 30.9062 17.3984 30.9062 19.0703C30.9062 20.1328 30.6172 21.0586 30.0391 21.8477C29.4688 22.6367 28.6719 23.2266 27.6484 23.6172L31.6562 30.8594V31H29.2422L25.5391 24.0977ZM21.5312 22.2578H24.9883C26.1055 22.2578 26.9922 21.9688 27.6484 21.3906C28.3125 20.8125 28.6445 20.0391 28.6445 19.0703C28.6445 18.0156 28.3281 17.207 27.6953 16.6445C27.0703 16.082 26.1641 15.7969 24.9766 15.7891H21.5312V22.2578ZM38.9922 31.2344C37.2734 31.2344 35.875 30.6719 34.7969 29.5469C33.7188 28.4141 33.1797 26.9023 33.1797 25.0117V24.6133C33.1797 23.3555 33.418 22.2344 33.8945 21.25C34.3789 20.2578 35.0508 19.4844 35.9102 18.9297C36.7773 18.3672 37.7148 18.0859 38.7227 18.0859C40.3711 18.0859 41.6523 18.6289 42.5664 19.7148C43.4805 20.8008 43.9375 22.3555 43.9375 24.3789V25.2812H35.3477C35.3789 26.5312 35.7422 27.543 36.4375 28.3164C37.1406 29.082 38.0312 29.4648 39.1094 29.4648C39.875 29.4648 40.5234 29.3086 41.0547 28.9961C41.5859 28.6836 42.0508 28.2695 42.4492 27.7539L43.7734 28.7852C42.7109 30.418 41.1172 31.2344 38.9922 31.2344ZM38.7227 19.8672C37.8477 19.8672 37.1133 20.1875 36.5195 20.8281C35.9258 21.4609 35.5586 22.3516 35.418 23.5H41.7695V23.3359C41.707 22.2344 41.4102 21.3828 40.8789 20.7812C40.3477 20.1719 39.6289 19.8672 38.7227 19.8672ZM48.6953 18.3203V32.4648C48.6953 34.9023 47.5898 36.1211 45.3789 36.1211C44.9023 36.1211 44.4609 36.0508 44.0547 35.9102V34.1758C44.3047 34.2383 44.6328 34.2695 45.0391 34.2695C45.5234 34.2695 45.8906 34.1367 46.1406 33.8711C46.3984 33.6133 46.5273 33.1602 46.5273 32.5117V18.3203H48.6953ZM46.3047 14.957C46.3047 14.6133 46.4102 14.3203 46.6211 14.0781C46.8398 13.8281 47.1562 13.7031 47.5703 13.7031C47.9922 13.7031 48.3125 13.8242 48.5312 14.0664C48.75 14.3086 48.8594 14.6055 48.8594 14.957C48.8594 15.3086 48.75 15.6016 48.5312 15.8359C48.3125 16.0703 47.9922 16.1875 47.5703 16.1875C47.1484 16.1875 46.832 16.0703 46.6211 15.8359C46.4102 15.6016 46.3047 15.3086 46.3047 14.957ZM57.4609 31.2344C55.7422 31.2344 54.3438 30.6719 53.2656 29.5469C52.1875 28.4141 51.6484 26.9023 51.6484 25.0117V24.6133C51.6484 23.3555 51.8867 22.2344 52.3633 21.25C52.8477 20.2578 53.5195 19.4844 54.3789 18.9297C55.2461 18.3672 56.1836 18.0859 57.1914 18.0859C58.8398 18.0859 60.1211 18.6289 61.0352 19.7148C61.9492 20.8008 62.4062 22.3555 62.4062 24.3789V25.2812H53.8164C53.8477 26.5312 54.2109 27.543 54.9062 28.3164C55.6094 29.082 56.5 29.4648 57.5781 29.4648C58.3438 29.4648 58.9922 29.3086 59.5234 28.9961C60.0547 28.6836 60.5195 28.2695 60.918 27.7539L62.2422 28.7852C61.1797 30.418 59.5859 31.2344 57.4609 31.2344ZM57.1914 19.8672C56.3164 19.8672 55.582 20.1875 54.9883 20.8281C54.3945 21.4609 54.0273 22.3516 53.8867 23.5H60.2383V23.3359C60.1758 22.2344 59.8789 21.3828 59.3477 20.7812C58.8164 20.1719 58.0977 19.8672 57.1914 19.8672ZM70.0117 29.4648C70.7852 29.4648 71.4609 29.2305 72.0391 28.7617C72.6172 28.293 72.9375 27.707 73 27.0039H75.0508C75.0117 27.7305 74.7617 28.4219 74.3008 29.0781C73.8398 29.7344 73.2227 30.2578 72.4492 30.6484C71.6836 31.0391 70.8711 31.2344 70.0117 31.2344C68.2852 31.2344 66.9102 30.6602 65.8867 29.5117C64.8711 28.3555 64.3633 26.7773 64.3633 24.7773V24.4141C64.3633 23.1797 64.5898 22.082 65.043 21.1211C65.4961 20.1602 66.1445 19.4141 66.9883 18.8828C67.8398 18.3516 68.8438 18.0859 70 18.0859C71.4219 18.0859 72.6016 18.5117 73.5391 19.3633C74.4844 20.2148 74.9883 21.3203 75.0508 22.6797H73C72.9375 21.8594 72.625 21.1875 72.0625 20.6641C71.5078 20.1328 70.8203 19.8672 70 19.8672C68.8984 19.8672 68.043 20.2656 67.4336 21.0625C66.832 21.8516 66.5312 22.9961 66.5312 24.4961V24.9062C66.5312 26.3672 66.832 27.4922 67.4336 28.2812C68.0352 29.0703 68.8945 29.4648 70.0117 29.4648ZM80.4297 15.25V18.3203H82.7969V19.9961H80.4297V27.8594C80.4297 28.3672 80.5352 28.75 80.7461 29.0078C80.957 29.2578 81.3164 29.3828 81.8242 29.3828C82.0742 29.3828 82.418 29.3359 82.8555 29.2422V31C82.2852 31.1562 81.7305 31.2344 81.1914 31.2344C80.2227 31.2344 79.4922 30.9414 79 30.3555C78.5078 29.7695 78.2617 28.9375 78.2617 27.8594V19.9961H75.9531V18.3203H78.2617V15.25H80.4297Z" fill="white"/>
</g>
</svg>
