<svg width="520" height="520" viewBox="0 0 520 520" fill="none" xmlns="http://www.w3.org/2000/svg">
<g id="accept" filter="url(#filter0_d)">
<path id="backgroundCircle" d="M260 490.67C389.605 490.67 494.67 385.605 494.67 256C494.67 126.395 389.605 21.33 260 21.33C130.395 21.33 25.33 126.395 25.33 256C25.33 385.605 130.395 490.67 260 490.67Z" fill="white"/>
<path id="outerCircle" d="M260 0C118.84 0 4 114.84 4 256C4 397.16 118.84 512 260 512C401.16 512 516 397.16 516 256C516 114.84 401.16 0 260 0ZM260 469.33C142.37 469.33 46.67 373.63 46.67 256C46.67 138.37 142.37 42.67 260 42.67C377.63 42.67 473.33 138.37 473.33 256C473.33 373.63 377.63 469.33 260 469.33Z" fill="#00FF00"/>
<path id="plus" d="M345.33 234.67H281.33V170.67C281.33 165.012 279.082 159.585 275.081 155.584C271.08 151.583 265.653 149.335 259.995 149.335C254.337 149.335 248.91 151.583 244.909 155.584C240.908 159.585 238.66 165.012 238.66 170.67V234.67H174.66C169.002 234.67 163.575 236.918 159.574 240.919C155.573 244.92 153.325 250.347 153.325 256.005C153.325 261.663 155.573 267.09 159.574 271.091C163.575 275.092 169.002 277.34 174.66 277.34H238.66V341.34C238.66 346.998 240.908 352.425 244.909 356.426C248.91 360.427 254.337 362.675 259.995 362.675C265.653 362.675 271.08 360.427 275.081 356.426C279.082 352.425 281.33 346.998 281.33 341.34V277.34H345.33C350.988 277.34 356.415 275.092 360.416 271.091C364.417 267.09 366.665 261.663 366.665 256.005C366.665 250.347 364.417 244.92 360.416 240.919C356.415 236.918 350.988 234.67 345.33 234.67V234.67Z" fill="#00FF00"/>
</g>
<defs>
<filter id="filter0_d" x="0" y="0" width="520" height="520" filterUnits="userSpaceOnUse" color-interpolation-filters="sRGB">
<feFlood flood-opacity="0" result="BackgroundImageFix"/>
<feColorMatrix in="SourceAlpha" type="matrix" values="0 0 0 0 0 0 0 0 0 0 0 0 0 0 0 0 0 0 127 0"/>
<feOffset dy="4"/>
<feGaussianBlur stdDeviation="2"/>
<feColorMatrix type="matrix" values="0 0 0 0 0 0 0 0 0 0 0 0 0 0 0 0 0 0 0.25 0"/>
<feBlend mode="normal" in2="BackgroundImageFix" result="effect1_dropShadow"/>
<feBlend mode="normal" in="SourceGraphic" in2="effect1_dropShadow" result="shape"/>
</filter>
</defs>
</svg>
