<svg width="48" height="49" viewBox="0 0 48 49" fill="none" xmlns="http://www.w3.org/2000/svg">
<g id="facebook-Icon">
<rect id="background" width="48" height="49" rx="5" fill="#4682B4"/>
<path id="f" d="M20.9436 3.53715L20.9717 3.54035H21H27.4286H34.2857H38C38.2761 3.54035 38.5 3.7642 38.5 4.04035V10.73C38.5 11.0062 38.2761 11.23 38 11.23H27.4286C25.9761 11.23 24.8445 11.4965 23.9699 11.969C23.0898 12.4445 22.4995 13.1129 22.1098 13.8638C21.3569 15.3145 21.357 17.0782 21.3571 18.3286L21.3571 18.3751V20.4421C21.3571 21.2705 22.0287 21.9421 22.8571 21.9421H27.4286H38C38.2761 21.9421 38.5 22.1659 38.5 22.4421V26.0425V28.1094C38.5 28.3856 38.2761 28.6094 38 28.6094H22.8571C22.0287 28.6094 21.3571 29.281 21.3571 30.1094V46C21.3571 46.2761 21.1333 46.5 20.8571 46.5H13C12.7239 46.5 12.5 46.2761 12.5 46V13.7747C12.5 9.18402 13.9593 6.57225 15.6936 5.13805C17.4453 3.68955 19.5524 3.37913 20.9436 3.53715Z" fill="white" stroke="white"/>
</g>
</svg>
