<svg width="28" height="28" viewBox="0 0 28 28" fill="none" xmlns="http://www.w3.org/2000/svg">
<g id="loading" filter="url(#filter0_d)">
<path id="Vector" d="M22.6523 15C22.3919 15.4427 22.0143 15.7324 21.5195 15.8691C21.0247 16.0059 20.5527 15.944 20.1035 15.6836C19.6543 15.4232 19.3613 15.0423 19.2246 14.541C19.0879 14.0397 19.1497 13.5677 19.4102 13.125C20.2044 11.7448 20.6471 10.2702 20.7383 8.70117C20.8294 7.13216 20.5723 5.63802 19.9668 4.21875C19.3613 2.79948 18.4661 1.58203 17.2812 0.566406C17.8932 0.77474 18.4661 1.03516 19 1.34766C20.1719 2.02474 21.1615 2.90039 21.9688 3.97461C22.776 5.04883 23.3424 6.19466 23.668 7.41211C23.9935 8.62956 24.0749 9.9056 23.9121 11.2402C23.7493 12.5749 23.3294 13.8281 22.6523 15ZM19 18.6523C17.8281 19.3294 16.5749 19.7493 15.2402 19.9121C13.9056 20.0749 12.6296 19.9935 11.4121 19.668C10.1947 19.3424 9.04883 18.776 7.97461 17.9688C6.90039 17.1615 6.02474 16.1719 5.34766 15C5.08724 14.5573 5.02214 14.0853 5.15234 13.584C5.28255 13.0827 5.57227 12.7018 6.02148 12.4414C6.4707 12.181 6.94596 12.1191 7.44727 12.2559C7.94857 12.3926 8.32943 12.6823 8.58984 13.125C9.1888 14.1667 9.94401 15.0651 10.8555 15.8203C11.7669 16.5755 12.75 17.1387 13.8047 17.5098C14.8594 17.8809 15.9694 18.0827 17.1348 18.1152C18.3001 18.1478 19.4297 17.9622 20.5234 17.5586C20.0417 17.9883 19.5339 18.3529 19 18.6523ZM14 3.75C12.3984 3.75 10.8978 4.10482 9.49805 4.81445C8.09831 5.52409 6.9362 6.49414 6.01172 7.72461C5.08724 8.95508 4.47526 10.3385 4.17578 11.875C4.05859 11.237 4 10.612 4 10C4 8.64583 4.26367 7.35026 4.79102 6.11328C5.31836 4.8763 6.02799 3.81185 6.91992 2.91992C7.81185 2.02799 8.8763 1.31836 10.1133 0.791016C11.3503 0.263672 12.6458 0 14 0C14.5208 0 14.9635 0.182292 15.3281 0.546875C15.6927 0.911458 15.875 1.35417 15.875 1.875C15.875 2.39583 15.6927 2.83854 15.3281 3.20312C14.9635 3.56771 14.5208 3.75 14 3.75Z" fill="black"/>
</g>
<defs>
<filter id="filter0_d" x="0" y="0" width="28" height="28" filterUnits="userSpaceOnUse" color-interpolation-filters="sRGB">
<feFlood flood-opacity="0" result="BackgroundImageFix"/>
<feColorMatrix in="SourceAlpha" type="matrix" values="0 0 0 0 0 0 0 0 0 0 0 0 0 0 0 0 0 0 127 0"/>
<feOffset dy="4"/>
<feGaussianBlur stdDeviation="2"/>
<feColorMatrix type="matrix" values="0 0 0 0 0 0 0 0 0 0 0 0 0 0 0 0 0 0 0.25 0"/>
<feBlend mode="normal" in2="BackgroundImageFix" result="effect1_dropShadow"/>
<feBlend mode="normal" in="SourceGraphic" in2="effect1_dropShadow" result="shape"/>
</filter>
</defs>
</svg>
