<svg width="53" height="54" viewBox="0 0 53 54" fill="none" xmlns="http://www.w3.org/2000/svg">
<g id="requestIcon">
<path id="background" d="M0 2.5C0 1.55719 0 1.08579 0.292893 0.792893C0.585786 0.5 1.05719 0.5 2 0.5H51C51.9428 0.5 52.4142 0.5 52.7071 0.792893C53 1.08579 53 1.55719 53 2.5V41.9872C53 42.93 53 43.4014 52.7071 43.6943C52.4142 43.9872 51.9428 43.9872 51 43.9872H8.39523C7.72059 43.9872 7.38327 43.9872 7.12546 44.167C6.86766 44.3469 6.75118 44.6634 6.51824 45.2966L5.37699 48.3984C4.59074 50.5354 4.19761 51.6039 3.5 51.6039C2.80239 51.6039 2.40926 50.5354 1.62301 48.3984L0.123012 44.3215C0.0616659 44.1548 0.030993 44.0714 0.0154965 43.9844C0 43.8974 0 43.8086 0 43.6309V2.5Z" fill="#F08080"/>
<path id="text" d="M15.6885 23.6729H12.0146V30H9.94141V14.3594H15.1191C16.8809 14.3594 18.2344 14.7604 19.1797 15.5625C20.1322 16.3646 20.6084 17.5319 20.6084 19.0645C20.6084 20.0384 20.3434 20.887 19.8135 21.6104C19.2907 22.3337 18.5602 22.8743 17.6221 23.2324L21.2959 29.8711V30H19.083L15.6885 23.6729ZM12.0146 21.9863H15.1836C16.2077 21.9863 17.0205 21.7214 17.6221 21.1914C18.2308 20.6615 18.5352 19.9525 18.5352 19.0645C18.5352 18.0977 18.2451 17.3564 17.665 16.8408C17.0921 16.3252 16.2614 16.0638 15.1729 16.0566H12.0146V21.9863ZM28.0205 30.2148C26.445 30.2148 25.1631 29.6992 24.1748 28.668C23.1865 27.6296 22.6924 26.2438 22.6924 24.5107V24.1455C22.6924 22.9925 22.9108 21.9648 23.3477 21.0625C23.7917 20.153 24.4076 19.444 25.1953 18.9355C25.9902 18.4199 26.8496 18.1621 27.7734 18.1621C29.2845 18.1621 30.459 18.6598 31.2969 19.6553C32.1348 20.6507 32.5537 22.0758 32.5537 23.9307V24.7578H24.6797C24.7083 25.9036 25.0413 26.8311 25.6787 27.54C26.3232 28.2419 27.1396 28.5928 28.1279 28.5928C28.8298 28.5928 29.4242 28.4495 29.9111 28.1631C30.3981 27.8766 30.8242 27.4971 31.1895 27.0244L32.4033 27.9697C31.4294 29.4665 29.9684 30.2148 28.0205 30.2148ZM27.7734 19.7949C26.9714 19.7949 26.2982 20.0885 25.7539 20.6758C25.2096 21.2559 24.873 22.0723 24.7441 23.125H30.5664V22.9746C30.5091 21.9648 30.237 21.1842 29.75 20.6328C29.263 20.0742 28.6042 19.7949 27.7734 19.7949ZM34.3799 24.0918C34.3799 22.2656 34.7988 20.8226 35.6367 19.7627C36.4746 18.6956 37.599 18.1621 39.0098 18.1621C40.3848 18.1621 41.4697 18.624 42.2646 19.5479L42.3506 18.377H44.1768V34.4688H42.1895V28.9258C41.3874 29.7852 40.3203 30.2148 38.9883 30.2148C37.5846 30.2148 36.4639 29.6706 35.626 28.582C34.7952 27.4863 34.3799 26.0361 34.3799 24.2314V24.0918ZM36.3672 24.3174C36.3672 25.6494 36.6465 26.695 37.2051 27.4541C37.7708 28.2132 38.5299 28.5928 39.4824 28.5928C40.6641 28.5928 41.5664 28.07 42.1895 27.0244V21.3311C41.5592 20.307 40.6641 19.7949 39.5039 19.7949C38.5443 19.7949 37.7816 20.1781 37.2158 20.9443C36.6501 21.7035 36.3672 22.8278 36.3672 24.3174Z" fill="white"/>
</g>
</svg>
