<svg width="101" height="50" viewBox="0 0 101 50" fill="none" xmlns="http://www.w3.org/2000/svg">
<path d="M94.0926 0H6.90741C3.62439 0 0.962967 2.63998 0.962967 5.89655V43.2414C0.962967 46.498 3.62439 49.1379 6.90741 49.1379H94.0926C97.3756 49.1379 100.037 46.498 100.037 43.2414V5.89655C100.037 2.63998 97.3756 0 94.0926 0Z" fill="#008000"/>
<path d="M25.2207 26.0892H18.1384L16.5478 30.4655H14.249L20.7043 13.6972H22.6547L29.1217 30.4655H26.8345L25.2207 26.0892ZM18.8118 24.2695H24.5588L21.6796 16.4266L18.8118 24.2695ZM36.0994 28.9568C36.8657 28.9568 37.5353 28.7265 38.108 28.2658C38.6808 27.8052 38.9981 27.2293 39.06 26.5383H41.0918C41.0531 27.2524 40.8054 27.9319 40.3488 28.5768C39.8921 29.2217 39.2807 29.7361 38.5143 30.12C37.7558 30.5039 36.9508 30.6959 36.0994 30.6959C34.3889 30.6959 33.0266 30.1316 32.0126 29.0029C31.0064 27.8666 30.5033 26.3156 30.5033 24.3501V23.9932C30.5033 22.78 30.7278 21.7013 31.1767 20.7569C31.6256 19.8126 32.2681 19.0794 33.104 18.5572C33.9477 18.0352 34.9423 17.7741 36.0878 17.7741C37.4965 17.7741 38.6653 18.1925 39.5941 19.0294C40.5307 19.8663 41.0299 20.9527 41.0918 22.2887H39.06C38.9981 21.4825 38.6885 20.8222 38.1312 20.3078C37.5816 19.7857 36.9005 19.5247 36.0878 19.5247C34.9965 19.5247 34.1489 19.9162 33.5452 20.6994C32.9492 21.4748 32.6512 22.5996 32.6512 24.0738V24.4768C32.6512 25.9126 32.9492 27.0182 33.5452 27.7936C34.1412 28.5691 34.9926 28.9568 36.0994 28.9568ZM48.5456 28.9568C49.3119 28.9568 49.9815 28.7265 50.5542 28.2658C51.127 27.8052 51.4443 27.2293 51.5062 26.5383H53.538C53.4993 27.2524 53.2516 27.9319 52.795 28.5768C52.3383 29.2217 51.7268 29.7361 50.9605 30.12C50.202 30.5039 49.397 30.6959 48.5456 30.6959C46.8351 30.6959 45.4728 30.1316 44.4588 29.0029C43.4526 27.8666 42.9495 26.3156 42.9495 24.3501V23.9932C42.9495 22.78 43.174 21.7013 43.6229 20.7569C44.0718 19.8126 44.7143 19.0794 45.5502 18.5572C46.3939 18.0352 47.3885 17.7741 48.534 17.7741C49.9427 17.7741 51.1115 18.1925 52.0403 19.0294C52.9769 19.8663 53.4761 20.9527 53.538 22.2887H51.5062C51.4443 21.4825 51.1347 20.8222 50.5774 20.3078C50.0278 19.7857 49.3467 19.5247 48.534 19.5247C47.4427 19.5247 46.5951 19.9162 45.9913 20.6994C45.3954 21.4748 45.0974 22.5996 45.0974 24.0738V24.4768C45.0974 25.9126 45.3954 27.0182 45.9913 27.7936C46.5874 28.5691 47.4388 28.9568 48.5456 28.9568ZM61.1659 30.6959C59.4631 30.6959 58.0776 30.1431 57.0095 29.0375C55.9414 27.9242 55.4072 26.4385 55.4072 24.5805V24.1889C55.4072 22.9528 55.6433 21.851 56.1155 20.8836C56.5953 19.9085 57.261 19.1485 58.1125 18.6033C58.9716 18.0505 59.9005 17.7741 60.8989 17.7741C62.5321 17.7741 63.8015 18.3077 64.707 19.3749C65.6127 20.4422 66.0654 21.9701 66.0654 23.9586V24.8453H57.5552C57.5861 26.0738 57.946 27.0681 58.6349 27.8282C59.3316 28.5806 60.2139 28.9568 61.282 28.9568C62.0406 28.9568 62.6831 28.8033 63.2093 28.4962C63.7357 28.1891 64.1962 27.7821 64.591 27.2754L65.903 28.2889C64.8503 29.8936 63.2713 30.6959 61.1659 30.6959ZM60.8989 19.5247C60.032 19.5247 59.3044 19.8394 58.7162 20.469C58.1279 21.0909 57.7641 21.9662 57.6248 23.0948H63.9176V22.9336C63.8557 21.851 63.5615 21.0141 63.0352 20.4229C62.5089 19.8241 61.7967 19.5247 60.8989 19.5247ZM79.1734 24.3732C79.1734 26.2696 78.7361 27.7975 77.8615 28.9568C76.9869 30.1161 75.8026 30.6959 74.3087 30.6959C72.7839 30.6959 71.5842 30.216 70.7095 29.2562V35.2565H68.5617V18.0044H70.5238L70.6283 19.3865C71.5029 18.3115 72.7182 17.7741 74.2739 17.7741C75.7832 17.7741 76.9753 18.3385 77.8499 19.4671C78.7323 20.5957 79.1734 22.1658 79.1734 24.1774V24.3732ZM77.0255 24.1313C77.0255 22.7263 76.7237 21.6169 76.12 20.803C75.5162 19.9891 74.6881 19.5823 73.6354 19.5823C72.335 19.5823 71.3598 20.1542 70.7095 21.2982V27.2524C71.352 28.3887 72.335 28.9568 73.6586 28.9568C74.6881 28.9568 75.5046 28.5538 76.1084 27.7476C76.7198 26.9337 77.0255 25.7283 77.0255 24.1313ZM84.8276 14.9871V18.0044H87.1729V19.6513H84.8276V27.3791C84.8276 27.8781 84.9321 28.2543 85.1411 28.5077C85.3501 28.7534 85.7062 28.8762 86.2093 28.8762C86.457 28.8762 86.7975 28.8301 87.2309 28.738V30.4655C86.6659 30.619 86.1164 30.6959 85.5823 30.6959C84.6225 30.6959 83.8988 30.4079 83.4112 29.8321C82.9236 29.2562 82.6798 28.4386 82.6798 27.3791V19.6513H80.3925V18.0044H82.6798V14.9871H84.8276Z" fill="white"/>
</svg>
