<svg width="512" height="512" viewBox="0 0 512 512" fill="none" xmlns="http://www.w3.org/2000/svg">
<g id="sendCircle">
<path id="overallcircle" d="M256 490.67C385.605 490.67 490.67 385.605 490.67 256C490.67 126.395 385.605 21.33 256 21.33C126.395 21.33 21.33 126.395 21.33 256C21.33 385.605 126.395 490.67 256 490.67Z" fill="#"/>
<path id="outerCircleTube" d="M256 0C114.84 0 0 114.84 0 256C0 397.16 114.84 512 256 512C397.16 512 512 397.16 512 256C512 114.84 397.16 0 256 0ZM256 469.33C138.37 469.33 42.67 373.63 42.67 256C42.67 138.37 138.37 42.67 256 42.67C373.63 42.67 469.33 138.37 469.33 256C469.33 373.63 373.63 469.33 256 469.33Z" fill="#4682B4"/>
<path id="arrow" d="M292.42 176.92C288.419 172.919 282.993 170.672 277.335 170.672C271.677 170.672 266.251 172.919 262.25 176.92C258.249 180.921 256.002 186.347 256.002 192.005C256.002 197.663 258.249 203.089 262.25 207.09L289.83 234.67H128C122.342 234.67 116.915 236.918 112.914 240.919C108.913 244.92 106.665 250.347 106.665 256.005C106.665 261.663 108.913 267.09 112.914 271.091C116.915 275.092 122.342 277.34 128 277.34H289.83L262.25 304.92C260.269 306.901 258.698 309.253 257.625 311.841C256.553 314.429 256.002 317.203 256.002 320.005C256.002 322.807 256.553 325.581 257.625 328.169C258.698 330.757 260.269 333.109 262.25 335.09C264.231 337.071 266.583 338.642 269.171 339.715C271.759 340.787 274.533 341.338 277.335 341.338C280.137 341.338 282.911 340.787 285.499 339.715C288.087 338.642 290.439 337.071 292.42 335.09L356.42 271.09C358.401 269.109 359.973 266.758 361.046 264.169C362.118 261.581 362.67 258.807 362.67 256.005C362.67 253.203 362.118 250.429 361.046 247.841C359.973 245.252 358.401 242.901 356.42 240.92L292.42 176.92Z" fill="#4682B4"/>
</g>
</svg>
