<svg width="100" height="50" viewBox="0 0 100 50" fill="none" xmlns="http://www.w3.org/2000/svg">
<g id="send1">
<path id="Vector" d="M94 0H6C2.68629 0 0 2.68629 0 6V44C0 47.3137 2.68629 50 6 50H94C97.3137 50 100 47.3137 100 44V6C100 2.68629 97.3137 0 94 0Z" fill="#008000"/>
<path id="SEND" d="M14.5117 25.5918C11.6172 24.7598 9.50781 23.7402 8.18359 22.5332C6.87109 21.3145 6.21484 19.8145 6.21484 18.0332C6.21484 16.0176 7.01758 14.3535 8.62305 13.041C10.2402 11.7168 12.3379 11.0547 14.916 11.0547C16.6738 11.0547 18.2383 11.3945 19.6094 12.0742C20.9922 12.7539 22.0586 13.6914 22.8086 14.8867C23.5703 16.082 23.9512 17.3887 23.9512 18.8066H20.5586C20.5586 17.2598 20.0664 16.0469 19.082 15.168C18.0977 14.2773 16.709 13.832 14.916 13.832C13.252 13.832 11.9512 14.2012 11.0137 14.9395C10.0879 15.666 9.625 16.6797 9.625 17.9805C9.625 19.0234 10.0645 19.9082 10.9434 20.6348C11.834 21.3496 13.3398 22.0059 15.4609 22.6035C17.5938 23.2012 19.2578 23.8633 20.4531 24.5898C21.6602 25.3047 22.5508 26.1426 23.125 27.1035C23.7109 28.0645 24.0039 29.1953 24.0039 30.4961C24.0039 32.5703 23.1953 34.2344 21.5781 35.4883C19.9609 36.7305 17.7988 37.3516 15.0918 37.3516C13.334 37.3516 11.6934 37.0176 10.1699 36.3496C8.64648 35.6699 7.46875 34.7441 6.63672 33.5723C5.81641 32.4004 5.40625 31.0703 5.40625 29.582H8.79883C8.79883 31.1289 9.36719 32.3535 10.5039 33.2559C11.6523 34.1465 13.1816 34.5918 15.0918 34.5918C16.873 34.5918 18.2383 34.2285 19.1875 33.502C20.1367 32.7754 20.6113 31.7852 20.6113 30.5312C20.6113 29.2773 20.1719 28.3105 19.293 27.6309C18.4141 26.9395 16.8203 26.2598 14.5117 25.5918ZM42.8125 25.1699H31.7207V34.2402H44.6055V37H28.3457V11.4062H44.4297V14.1836H31.7207V22.4102H42.8125V25.1699ZM68.4766 37H65.084L52.1992 17.2773V37H48.8066V11.4062H52.1992L65.1191 31.2168V11.4062H68.4766V37ZM74.4707 37V11.4062H81.6953C83.9219 11.4062 85.8906 11.8984 87.6016 12.8828C89.3125 13.8672 90.6309 15.2676 91.5566 17.084C92.4941 18.9004 92.9688 20.9863 92.9805 23.3418V24.9766C92.9805 27.3906 92.5117 29.5059 91.5742 31.3223C90.6484 33.1387 89.3184 34.5332 87.584 35.5059C85.8613 36.4785 83.8516 36.9766 81.5547 37H74.4707ZM77.8457 14.1836V34.2402H81.3965C83.998 34.2402 86.0195 33.4316 87.4609 31.8145C88.9141 30.1973 89.6406 27.8945 89.6406 24.9062V23.4121C89.6406 20.5059 88.9551 18.25 87.584 16.6445C86.2246 15.0273 84.291 14.207 81.7832 14.1836H77.8457Z" fill="white"/>
</g>
</svg>
